<svg width="20" height="20" viewBox="0 0 20 20" fill="none" xmlns="http://www.w3.org/2000/svg">
<path d="M8.4458 17.5L8.14413 15.09C7.87802 15.0094 7.59052 14.8833 7.28163 14.7117C6.97219 14.5394 6.70913 14.355 6.49247 14.1583L4.26913 15.1042L2.71497 12.3958L4.63663 10.9467C4.61163 10.7967 4.59135 10.6417 4.5758 10.4817C4.55913 10.3217 4.5508 10.1664 4.5508 10.0158C4.5508 9.87583 4.55913 9.72861 4.5758 9.57417C4.59135 9.41972 4.61163 9.24583 4.63663 9.0525L2.71497 7.605L4.26913 4.92833L6.4758 5.85833C6.72469 5.65111 6.99413 5.46417 7.28413 5.2975C7.57302 5.13083 7.85441 5.00194 8.1283 4.91083L8.44497 2.5H11.555L11.8558 4.92667C12.1752 5.03889 12.4575 5.1675 12.7025 5.3125C12.9475 5.4575 13.2 5.63917 13.46 5.8575L15.7308 4.92833L17.285 7.60417L15.3 9.10083C15.3455 9.27306 15.3711 9.43111 15.3766 9.575C15.3822 9.71889 15.385 9.86056 15.385 10C15.385 10.1294 15.3794 10.2658 15.3683 10.4092C15.3577 10.5531 15.3333 10.7269 15.295 10.9308L17.2483 12.3958L15.6941 15.1042L13.46 14.1425C13.2005 14.3608 12.9394 14.5478 12.6766 14.7033C12.4139 14.8589 12.1402 14.9825 11.8558 15.0742L11.555 17.5H8.4458ZM9.16663 16.6667H10.7966L11.1041 14.41C11.5241 14.2989 11.9019 14.1464 12.2375 13.9525C12.5741 13.7586 12.9164 13.4931 13.2641 13.1558L15.3433 14.0417L16.1716 12.625L14.3475 11.255C14.4169 11.0178 14.463 10.7994 14.4858 10.6C14.508 10.4011 14.5191 10.2011 14.5191 10C14.5191 9.78889 14.508 9.58889 14.4858 9.4C14.4636 9.21111 14.4175 9.00361 14.3475 8.7775L16.2033 7.375L15.375 5.95833L13.2483 6.85C12.9961 6.57278 12.6647 6.31306 12.2541 6.07083C11.843 5.82917 11.4541 5.66889 11.0875 5.59L10.8333 3.33333H9.17163L8.91163 5.57417C8.49163 5.66361 8.10552 5.80806 7.7533 6.0075C7.40163 6.20639 7.05163 6.48 6.7033 6.82833L4.62497 5.95833L3.79663 7.375L5.60413 8.725C5.53469 8.91167 5.48608 9.11444 5.4583 9.33333C5.43052 9.55222 5.41663 9.78 5.41663 10.0167C5.41663 10.2278 5.43052 10.4375 5.4583 10.6458C5.48608 10.8542 5.52941 11.0569 5.5883 11.2542L3.79663 12.625L4.62497 14.0417L6.68747 13.1667C7.01469 13.4967 7.35413 13.7614 7.7058 13.9608C8.05802 14.1603 8.45469 14.3156 8.8958 14.4267L9.16663 16.6667ZM9.97747 12.0833C10.5586 12.0833 11.0511 11.8814 11.455 11.4775C11.8589 11.0736 12.0608 10.5811 12.0608 10C12.0608 9.41889 11.8589 8.92639 11.455 8.5225C11.0511 8.11861 10.5586 7.91667 9.97747 7.91667C9.39302 7.91667 8.89969 8.11861 8.49747 8.5225C8.09524 8.92639 7.89413 9.41889 7.89413 10C7.89413 10.5811 8.09524 11.0736 8.49747 11.4775C8.89969 11.8814 9.39302 12.0833 9.97747 12.0833Z" fill="#636260"/>
</svg>
